# xmcd
# 
# Track frame offsets:
#     150
#     17841
#     38886
#     56630
#     72589
#     92967
#     105687
#     123130
#     137006
#     151923
#     170461
#     188507
#     208551
# 
# Disc length: 2984
# 
# Revision: 0
# Processed by: cddbd v1.5.2PL0 Copyright (c) Steve Scherf et al.
# Submitted via: fre:ac v1.0.31
# 
DISCID=af0ba60d
DTITLE=Crash Kelly - On More Heart Attack
DYEAR=2008
DGENRE=Hard Rock
TTITLE0=One More Heart Attack
TTITLE1=Jenny Jet
TTITLE2=Old Habits Die Hard (And The Good Die Young)
TTITLE3=The Devil You Know
TTITLE4=Love Won't Die
TTITLE5=Nottingham Rock City Blues
TTITLE6=Right Girl Wrong Time
TTITLE7=Trash Talk
TTITLE8=Falling In And Out
TTITLE9=16 On A Summer Night
TTITLE10=Calling Dr. Love (Kiss cover)
TTITLE11=On With The Show (Motley Crue cover)
TTITLE12=Shot Down In Flames (AC/DC cover)
EXTD=
EXTT0=
EXTT1=
EXTT2=
EXTT3=
EXTT4=
EXTT5=
EXTT6=
EXTT7=
EXTT8=
EXTT9=
EXTT10=
EXTT11=
EXTT12=
PLAYORDER=
